<?xml version="1.0" encoding="iso-8859-1"?>
<!-- Generator: Adobe Illustrator 19.0.0, SVG Export Plug-In . SVG Version: 6.00 Build 0)  -->
<svg version="1.1" id="Capa_1" xmlns="http://www.w3.org/2000/svg" xmlns:xlink="http://www.w3.org/1999/xlink" x="0px" y="0px"
	 viewBox="0 0 391.758 391.758" style="enable-background:new 0 0 391.758 391.758;" xml:space="preserve">
<g>
	<path d="M269.333,367.273h-15.052c-8.974,0-16.068-9.769-18.113-15.346c-1.114-3.042-2.167-10.082-2.834-15.26h-74.911
		c-0.667,5.179-1.72,12.218-2.834,15.26c-2.044,5.576-9.139,15.346-18.113,15.346h-15.052c-3.379,0-6.121,2.742-6.121,6.121
		s2.742,6.121,6.121,6.121h146.909c3.379,0,6.121-2.742,6.121-6.121C275.455,370.016,272.712,367.273,269.333,367.273
		L269.333,367.273z M379.515,269.333c0,6.764-5.478,12.242-12.242,12.242H24.485c-6.764,0-12.242-5.478-12.242-12.242V36.727
		c0-6.764,5.478-12.242,12.242-12.242h342.788c6.764,0,12.242,5.478,12.242,12.242V269.333z M195.879,312.182
		c-3.379,0-6.121-2.742-6.121-6.121s2.742-6.121,6.121-6.121s6.121,2.742,6.121,6.121S199.258,312.182,195.879,312.182
		L195.879,312.182z M367.273,12.242H24.485C10.963,12.242,0,23.206,0,36.727V306.06c0,13.522,10.963,24.485,24.485,24.485h342.788
		c13.522,0,24.485-10.963,24.485-24.485V36.727C391.758,23.206,380.794,12.242,367.273,12.242L367.273,12.242z M67.333,61.212
		h-48.97v6.121h48.97v18.364h-48.97v6.121h48.97v18.364h-48.97v6.121h48.97v18.364h-48.97v6.121h48.97v18.364h-48.97v6.121h48.97
		v18.364h-48.97v6.121h48.97v18.364h-48.97v6.121h48.97v18.364h-48.97v6.121h48.97v18.364h-48.97v6.121h48.97v12.242h6.121V67.333
		h299.939v-6.121H73.455H67.333z M284.636,116.303H254.03c-1.689,0-3.061,1.371-3.061,3.061v12.242c0,1.689,1.371,3.061,3.061,3.061
		h30.606c1.689,0,3.061-1.371,3.061-3.061v-12.242C287.697,117.674,286.326,116.303,284.636,116.303L284.636,116.303z
		 M370.333,140.788h-30.606c-1.689,0-3.061,1.371-3.061,3.061v12.242c0,1.689,1.371,3.061,3.061,3.061h30.606
		c1.689,0,3.061-1.371,3.061-3.061v-12.242C373.394,142.159,372.023,140.788,370.333,140.788L370.333,140.788z M327.485,140.788
		h-30.606c-1.689,0-3.061,1.371-3.061,3.061v12.242c0,1.689,1.371,3.061,3.061,3.061h30.606c1.689,0,3.061-1.371,3.061-3.061
		v-12.242C330.545,142.159,329.174,140.788,327.485,140.788L327.485,140.788z M284.636,140.788H254.03
		c-1.689,0-3.061,1.371-3.061,3.061v12.242c0,1.689,1.371,3.061,3.061,3.061h30.606c1.689,0,3.061-1.371,3.061-3.061v-12.242
		C287.697,142.159,286.326,140.788,284.636,140.788L284.636,140.788z M244.848,156.091v-12.242c0-1.689-1.371-3.061-3.061-3.061
		h-30.606c-1.689,0-3.061,1.371-3.061,3.061v12.242c0,1.689,1.371,3.061,3.061,3.061h30.606
		C243.477,159.152,244.848,157.78,244.848,156.091L244.848,156.091z M247.909,238.727h-30.606c-1.689,0-3.061,1.371-3.061,3.061
		v12.242c0,1.689,1.371,3.061,3.061,3.061h30.606c1.689,0,3.061-1.371,3.061-3.061v-12.242
		C250.97,240.098,249.599,238.727,247.909,238.727L247.909,238.727z M205.061,238.727h-30.606c-1.689,0-3.061,1.371-3.061,3.061
		v12.242c0,1.689,1.371,3.061,3.061,3.061h30.606c1.689,0,3.061-1.371,3.061-3.061v-12.242
		C208.121,240.098,206.75,238.727,205.061,238.727L205.061,238.727z M162.212,238.727h-30.606c-1.689,0-3.061,1.371-3.061,3.061
		v12.242c0,1.689,1.371,3.061,3.061,3.061h30.606c1.689,0,3.061-1.371,3.061-3.061v-12.242
		C165.273,240.098,163.902,238.727,162.212,238.727L162.212,238.727z M202,156.091v-12.242c0-1.689-1.371-3.061-3.061-3.061h-30.606
		c-1.689,0-3.061,1.371-3.061,3.061v12.242c0,1.689,1.371,3.061,3.061,3.061h30.606C200.629,159.152,202,157.78,202,156.091
		L202,156.091z M159.152,156.091v-12.242c0-1.689-1.371-3.061-3.061-3.061h-30.606c-1.689,0-3.061,1.371-3.061,3.061v12.242
		c0,1.689,1.371,3.061,3.061,3.061h30.606C157.78,159.152,159.152,157.78,159.152,156.091L159.152,156.091z M113.242,140.788H82.636
		c-1.689,0-3.061,1.371-3.061,3.061v12.242c0,1.689,1.371,3.061,3.061,3.061h30.606c1.689,0,3.061-1.371,3.061-3.061v-12.242
		C116.303,142.159,114.932,140.788,113.242,140.788L113.242,140.788z M211.182,134.667h30.606c1.689,0,3.061-1.371,3.061-3.061
		v-12.242c0-1.689-1.371-3.061-3.061-3.061h-30.606c-1.689,0-3.061,1.371-3.061,3.061v12.242
		C208.121,133.296,209.492,134.667,211.182,134.667L211.182,134.667z M165.273,131.606c0,1.689,1.371,3.061,3.061,3.061h30.606
		c1.689,0,3.061-1.371,3.061-3.061v-12.242c0-1.689-1.371-3.061-3.061-3.061h-30.606c-1.689,0-3.061,1.371-3.061,3.061V131.606z
		 M370.333,189.758h-30.606c-1.689,0-3.061,1.371-3.061,3.061v12.242c0,1.689,1.371,3.061,3.061,3.061h30.606
		c1.689,0,3.061-1.371,3.061-3.061v-12.242C373.394,191.129,372.023,189.758,370.333,189.758L370.333,189.758z M327.485,189.758
		h-30.606c-1.689,0-3.061,1.371-3.061,3.061v12.242c0,1.689,1.371,3.061,3.061,3.061h30.606c1.689,0,3.061-1.371,3.061-3.061
		v-12.242C330.545,191.129,329.174,189.758,327.485,189.758L327.485,189.758z M284.636,189.758H254.03
		c-1.689,0-3.061,1.371-3.061,3.061v12.242c0,1.689,1.371,3.061,3.061,3.061h30.606c1.689,0,3.061-1.371,3.061-3.061v-12.242
		C287.697,191.129,286.326,189.758,284.636,189.758L284.636,189.758z M168.333,110.182h30.606c1.689,0,3.061-1.371,3.061-3.061
		V94.879c0-1.689-1.371-3.061-3.061-3.061h-30.606c-1.689,0-3.061,1.371-3.061,3.061v12.242
		C165.273,108.811,166.644,110.182,168.333,110.182L168.333,110.182z M125.485,110.182h30.606c1.689,0,3.061-1.371,3.061-3.061
		V94.879c0-1.689-1.371-3.061-3.061-3.061h-30.606c-1.689,0-3.061,1.371-3.061,3.061v12.242
		C122.424,108.811,123.795,110.182,125.485,110.182L125.485,110.182z M113.242,91.818H82.636c-1.689,0-3.061,1.371-3.061,3.061
		v12.242c0,1.689,1.371,3.061,3.061,3.061h30.606c1.689,0,3.061-1.371,3.061-3.061V94.879
		C116.303,93.189,114.932,91.818,113.242,91.818L113.242,91.818z"/>
</g>
<g>
</g>
<g>
</g>
<g>
</g>
<g>
</g>
<g>
</g>
<g>
</g>
<g>
</g>
<g>
</g>
<g>
</g>
<g>
</g>
<g>
</g>
<g>
</g>
<g>
</g>
<g>
</g>
<g>
</g>
</svg>
